<svg version="1.1" xmlns="http://www.w3.org/2000/svg" viewBox="0 0 659.1913839720042 327.2008673203715" width="659.1913839720042" height="327.2008673203715">
  <!-- svg-source:excalidraw -->
  
  <defs>
    <style class="style-fonts">
      @font-face {
        font-family: "Virgil";
        src: url("https://excalidraw.com/Virgil.woff2");
      }
      @font-face {
        font-family: "Cascadia";
        src: url("https://excalidraw.com/Cascadia.woff2");
      }
    </style>
  </defs>
  <rect x="0" y="0" width="659.1913839720042" height="327.2008673203715" fill="#ffffff"></rect><g stroke-linecap="round" transform="translate(415.6901544590663 43.700867320371515) rotate(0 37 14.5)"><path d="M-1.57 0.03 C24.29 0.01, 47.9 -2.04, 75.05 1.96 M0.31 -0.57 C26.06 0.49, 53.49 0.84, 73.22 -0.55 M73.65 1.39 C74.15 7.74, 74.82 18.34, 75.31 28.57 M74.57 -0.08 C73.3 7.56, 74.62 16.38, 73.37 28.71 M73.78 27.9 C52.4 27.25, 30.8 27.11, 1.92 29.79 M74.19 28.15 C55.26 30.14, 37.55 30.59, -0.66 28.94 M0.76 27.46 C1.22 18.38, 0.43 8.52, 0.54 -1.83 M0.63 28.65 C-0.22 23.72, -0.82 17.12, 0.79 0.31" stroke="#000000" stroke-width="1" fill="none"></path></g><g stroke-linecap="round" transform="translate(297.6901544590663 153.70086732037151) rotate(0 17 33.5)"><path d="M-0.17 0.51 C6.93 -0.12, 14.76 0.06, 32.62 -0.09 M-0.54 -0.71 C8.47 0.05, 14.37 -0.69, 34.51 -0.08 M35.3 0.02 C34.41 27.26, 32.02 54.23, 33.97 67.43 M33.05 0.47 C33.84 23.03, 33.83 44.71, 34.65 66.32 M33.34 65.44 C21.88 68.88, 13.72 66.47, 0.68 66.62 M33.7 66.1 C21.66 67.37, 10.49 66.65, -0.32 66.41 M1.44 65.44 C0.73 40.5, 2.36 17.81, 1.91 -1.93 M-0.59 67.7 C-0.53 41.79, 0.1 16.29, -0.29 0.81" stroke="#000000" stroke-width="1" fill="none"></path></g><g stroke-linecap="round" transform="translate(420.6901544590663 288.2008673203715) rotate(0 37 14.5)"><path d="M1.91 -1.93 C20.38 0.47, 38.98 -1.88, 75.39 -0.27 M-0.29 0.81 C25.47 -1.41, 52.55 -0.51, 74.1 -0.29 M74.14 -0.3 C75.14 11.63, 73.66 20.2, 73.19 29.22 M74.6 0.05 C74.62 8.96, 73.76 18.3, 74.58 29.48 M73.45 28.39 C57.3 28.71, 39.3 29.1, -1.9 29.81 M73.87 28.71 C46.64 27.91, 19.47 29.25, -0.1 29.54 M-0.19 27.85 C-1.68 17.69, 0.88 8.25, -1.28 -1.87 M0.53 29.56 C-0.25 21.93, 0.7 12.72, -0.32 -0.78" stroke="#000000" stroke-width="1" fill="none"></path></g><g stroke-linecap="round" transform="translate(550.6901544590663 146.20086732037151) rotate(0 17 33.5)"><path d="M1.52 0.33 C9.08 0.83, 12.79 0.91, 35.33 0.72 M-0.22 -0.95 C9.33 0.49, 19.05 0.64, 34.42 0.91 M32.58 -1.41 C35.07 13.71, 32.66 27.44, 33.54 68.32 M33.94 0.97 C35.25 25.04, 34.03 49.72, 34.57 67.16 M34.26 66.43 C26.02 65.5, 17.86 67.83, 0.45 65.58 M33.98 66.77 C23.31 67.56, 14 66.19, 0.71 66.43 M-0.25 67.38 C-1.16 43.08, -0.5 21.33, 1.17 1.75 M-0.52 67.09 C-1.51 42.05, -0.28 16.3, -0.59 -0.42" stroke="#000000" stroke-width="1" fill="none"></path></g><g stroke-linecap="round" transform="translate(66.69015445906632 145.70086732037151) rotate(0 43.5 42.5)"><path d="M39.65 0.38 C46.94 -0.72, 55.8 1.76, 62.55 5.22 C69.31 8.68, 76.15 14.62, 80.17 21.14 C84.19 27.65, 86.96 36.66, 86.68 44.29 C86.4 51.93, 82.86 60.64, 78.49 66.93 C74.13 73.23, 67.77 79.2, 60.49 82.08 C53.22 84.95, 42.48 85.69, 34.84 84.2 C27.2 82.7, 20.26 78.38, 14.67 73.11 C9.08 67.83, 3.47 59.82, 1.28 52.56 C-0.91 45.3, -0.97 36.87, 1.52 29.54 C4.01 22.21, 7.88 13.49, 16.2 8.57 C24.52 3.65, 43.85 0.65, 51.45 0.02 C59.06 -0.6, 62.05 4.05, 61.82 4.83 M47.34 -0.77 C55.09 -0.23, 64.91 5.3, 71.3 10.42 C77.69 15.55, 83.16 23.09, 85.69 29.98 C88.23 36.87, 88.51 44.78, 86.5 51.77 C84.49 58.76, 79.44 66.43, 73.63 71.93 C67.81 77.42, 59.56 83.2, 51.62 84.72 C43.67 86.24, 33.32 84, 25.95 81.06 C18.58 78.12, 11.54 73.03, 7.41 67.06 C3.29 61.09, 1.51 52.84, 1.2 45.24 C0.89 37.63, 1.84 28.14, 5.55 21.44 C9.27 14.74, 16.25 8.6, 23.49 5.02 C30.73 1.43, 45.15 0.69, 48.97 -0.08 C52.79 -0.86, 46.5 -0.15, 46.41 0.37" stroke="#000000" stroke-width="1" fill="none"></path></g><g stroke-linecap="round"><g transform="translate(100.63402750595628 160.81287201558808) rotate(0 11.684093898238189 0.4688383000024601)"><path d="M0.15 0.16 C8.24 0.94, 15.89 -0.54, 22.45 0.42 M0.9 0.49 C7.7 0.54, 15.54 1, 23.21 0.8" stroke="#000000" stroke-width="1" fill="none"></path></g></g><mask></mask><g stroke-linecap="round"><g transform="translate(113.62905114465661 153.38714422204504) rotate(0 -0.3382794585980946 10.154987467999376)"><path d="M1.71 -1.01 C-1.45 5.07, -1.87 11.63, -2.39 20.28 M0.4 0.86 C-0.51 5.91, -0.9 13.94, -0.78 21.32" stroke="#000000" stroke-width="1" fill="none"></path></g></g><mask></mask><g stroke-linecap="round"><g transform="translate(101.40754081778368 217.43404644135393) rotate(0 12.687174142318213 0.9630696944238935)"><path d="M1.22 1.48 C5.62 1.1, 10.67 2.03, 24.81 0.44 M0.57 0.87 C8.25 0.34, 14.97 1.56, 23.88 0.59" stroke="#000000" stroke-width="1" fill="none"></path></g></g><mask></mask><g stroke-linecap="round"><g transform="translate(111.73093206239173 146.74352054889943) rotate(0 -0.9386926111926073 -48.302746764459215)"><path d="M-1.52 -1.94 C0.49 -26.43, -0.31 -51.86, -1.51 -97.06 M-0.33 0.46 C-1.21 -29.26, -1.89 -59.72, -1.44 -95.97" stroke="#000000" stroke-width="1" fill="none"></path></g></g><mask></mask><g stroke-linecap="round"><g transform="translate(415.1801687805963 54.88336791372876) rotate(0 -152.3083284494748 -0.7884381761734574)"><path d="M0.51 0.28 C-64.81 2.53, -127.99 0.71, -305.23 -2.18 M0.61 -0.22 C-92.36 -2.8, -184.77 -3.44, -304.71 -2.36" stroke="#000000" stroke-width="1" fill="none"></path></g></g><mask></mask><g stroke-linecap="round"><g transform="translate(488.8701439995581 55.59880456634005) rotate(0 40.432461001801585 0.6465569433532323)"><path d="M-1.6 1.81 C21.92 -0.03, 41.02 -1.48, 79.88 0.29 M0.8 0.22 C33.28 0.59, 65.58 -0.41, 82.46 0.78" stroke="#000000" stroke-width="1" fill="none"></path></g></g><mask></mask><g stroke-linecap="round"><g transform="translate(572.2185140287719 56.671959545256925) rotate(0 -1.4912540995618428 43.99597426926704)"><path d="M-1.75 -1.23 C0.19 19.97, -1.23 41.27, -3.08 89.22 M0.57 0.57 C-0.06 18.27, -1.68 36.87, -3.56 89.13" stroke="#000000" stroke-width="1" fill="none"></path></g></g><mask></mask><g stroke-linecap="round"><g transform="translate(316.0921923939344 56.31424121895128) rotate(0 0.15191178743697265 48.05210455354484)"><path d="M0.36 -0.3 C-0.4 37.55, 1.3 73.35, -0.15 96.41 M-0.27 0.19 C-0.47 29.05, -0.56 59.94, 0.69 95.99" stroke="#000000" stroke-width="1" fill="none"></path></g></g><mask></mask><g stroke-linecap="round"><g transform="translate(112.19274639972025 230.88078445610313) rotate(0 -0.17973565154829885 38.07968240764356)"><path d="M1.34 1.95 C-1.25 25.61, -3.08 52.27, 0.01 74.56 M0.21 -0.09 C-0.18 25.85, -0.95 51.39, -1.69 76.25" stroke="#000000" stroke-width="1" fill="none"></path></g></g><mask></mask><g stroke-linecap="round"><g transform="translate(111.47730974710896 307.07478795920423) rotate(0 154.21045455047903 0.37218658280983163)"><path d="M-0.21 0.76 C92.44 -1.49, 184.89 -0.58, 308.65 1.31 M-0.23 0.66 C99.54 0.15, 199.43 0.9, 307.41 0.47" stroke="#000000" stroke-width="1" fill="none"></path></g></g><mask></mask><g stroke-linecap="round"><g transform="translate(494.59363722044816 305.286196327676) rotate(0 37.273520208483774 1.0079827677270714)"><path d="M-1.88 0.94 C21.18 2.49, 45.31 2.35, 73.91 1.83 M0.02 -0.18 C25.49 0.29, 50.16 0.79, 76.43 0.64" stroke="#000000" stroke-width="1" fill="none"></path></g></g><mask></mask><g stroke-linecap="round"><g transform="translate(570.7876407235493 305.64391465398165) rotate(0 -1.376338528932024 -46.22563049510873)"><path d="M-1.38 -0.63 C-0.36 -19.75, 0.35 -42.67, -2.97 -91.26 M0.22 -0.97 C-1.35 -24.1, -2.37 -45.81, -2.05 -91.82" stroke="#000000" stroke-width="1" fill="none"></path></g></g><mask></mask><g stroke-linecap="round"><g transform="translate(314.3036007624062 221.22238964585085) rotate(0 0.6459098251530122 41.703068701127535)"><path d="M1.71 -1.85 C-0.74 26.6, -0.95 52.72, 0.44 83.74 M0.32 -0.9 C-0.32 20.13, 0.86 40.03, 1.03 85.25" stroke="#000000" stroke-width="1" fill="none"></path></g></g><mask></mask><g stroke-linecap="round"><g transform="translate(313.94588243610053 53.81021293481189) rotate(0 127.58260845501661 125.46736110174959)"><path d="M0.47 1.21 C71.92 69.19, 142.77 141.81, 254.65 250.49 M0.26 -0.48 C92.44 89.15, 182.44 178.48, 254.91 251.42" stroke="#000000" stroke-width="1" fill="none"></path></g></g><mask></mask><g stroke-linecap="round"><g transform="translate(316.0921923939344 305.286196327676) rotate(0 61.21017100335166 -53.15137152460349)"><path d="M-1.22 -1.71 C37.77 -34.39, 72.67 -65.54, 123.64 -106.57 M0.47 0.52 C37.3 -34.73, 76.14 -68.63, 122.16 -106.83" stroke="#000000" stroke-width="1" fill="none"></path></g></g><mask></mask><g stroke-linecap="round"><g transform="translate(572.5762323550774 58.1028328504795) rotate(0 -56.61927585125795 60.96455089405657)"><path d="M1.37 -1.54 C-27.93 29.96, -58.03 61.09, -114.61 123.47 M-0.38 -0.98 C-39.97 43.18, -79.27 86.64, -111.9 122.81" stroke="#000000" stroke-width="1" fill="none"></path></g></g><mask></mask><g transform="translate(437.5302870383174 198.32490596770202) rotate(0 11.364726097026164 -10.516612209188366)" stroke="none"><path fill="#000000" d="M -2.44,-0.34 Q -2.44,-0.34 -2.01,-2.37 -1.59,-4.40 -1.26,-6.02 -0.93,-7.64 -0.62,-9.04 -0.31,-10.43 0.11,-11.80 0.54,-13.16 1.29,-14.51 2.04,-15.86 2.78,-16.88 3.51,-17.91 4.43,-18.66 5.34,-19.41 7.06,-20.46 8.78,-21.52 10.34,-22.24 11.91,-22.97 13.66,-23.42 15.41,-23.86 16.68,-23.50 17.95,-23.14 19.04,-22.44 20.13,-21.74 21.32,-20.63 22.50,-19.53 23.74,-18.60 24.98,-17.66 25.28,-17.22 25.58,-16.78 25.72,-16.27 25.86,-15.76 25.83,-15.22 25.80,-14.69 25.60,-14.20 25.41,-13.70 25.06,-13.30 24.72,-12.89 24.26,-12.62 23.80,-12.35 23.28,-12.23 22.76,-12.12 22.23,-12.18 21.70,-12.23 21.22,-12.46 20.74,-12.68 20.35,-13.05 19.97,-13.42 19.72,-13.89 19.47,-14.36 19.38,-14.88 19.30,-15.41 19.38,-15.93 19.47,-16.46 19.72,-16.93 19.97,-17.40 20.36,-17.77 20.75,-18.13 21.23,-18.35 21.71,-18.58 22.24,-18.63 22.77,-18.69 23.29,-18.58 23.81,-18.46 24.27,-18.19 24.72,-17.91 25.07,-17.50 25.41,-17.10 25.61,-16.60 25.80,-16.11 25.83,-15.58 25.86,-15.04 25.72,-14.53 25.57,-14.02 25.27,-13.58 24.97,-13.14 24.55,-12.82 24.13,-12.49 23.62,-12.33 23.12,-12.16 22.58,-12.16 22.05,-12.16 21.55,-12.33 21.04,-12.50 20.62,-12.82 20.20,-13.15 20.20,-13.14 20.20,-13.14 18.35,-14.82 16.51,-16.50 15.24,-17.08 13.98,-17.66 12.59,-17.15 11.19,-16.63 9.72,-15.90 8.25,-15.16 7.20,-14.28 6.14,-13.39 5.55,-12.50 4.95,-11.62 4.52,-10.48 4.09,-9.34 3.73,-8.05 3.38,-6.75 3.07,-5.27 2.76,-3.78 2.60,-1.71 2.44,0.34 2.36,0.63 2.28,0.92 2.14,1.18 2.00,1.44 1.80,1.66 1.59,1.88 1.34,2.04 1.10,2.21 0.82,2.30 0.54,2.40 0.24,2.43 -0.05,2.46 -0.34,2.42 -0.64,2.38 -0.91,2.27 -1.19,2.16 -1.43,1.98 -1.67,1.81 -1.86,1.58 -2.06,1.35 -2.19,1.09 -2.32,0.82 -2.39,0.53 -2.45,0.24 -2.45,-0.05 -2.44,-0.34 -2.44,-0.34 L -2.44,-0.34 Z"></path></g><g transform="translate(418.7660111584604 10) rotate(0 34.243988037109375 17.5)"><text x="0" y="0" font-family="Virgil, Segoe UI Emoji" font-size="28px" fill="#000000" text-anchor="start" style="white-space: pre;" direction="ltr" dominant-baseline="text-before-edge">8ohm</text></g><g transform="translate(426.56020939007374 256.4170108823624) rotate(0 33.06798553466797 17.5)"><text x="0" y="0" font-family="Virgil, Segoe UI Emoji" font-size="28px" fill="#000000" text-anchor="start" style="white-space: pre;" direction="ltr" dominant-baseline="text-before-edge">3ohm</text></g><g transform="translate(584.2034078977855 163.741918426314) rotate(0 32.493988037109375 17.5)"><text x="0" y="0" font-family="Virgil, Segoe UI Emoji" font-size="28px" fill="#000000" text-anchor="start" style="white-space: pre;" direction="ltr" dominant-baseline="text-before-edge">4ohm</text></g><g transform="translate(330.06346363686873 168.51898504775966) rotate(0 37.295982360839844 17.5)"><text x="0" y="0" font-family="Virgil, Segoe UI Emoji" font-size="28px" fill="#000000" text-anchor="start" style="white-space: pre;" direction="ltr" dominant-baseline="text-before-edge">12ohm</text></g><g transform="translate(10 169.47439837204888) rotate(0 26.24999237060547 17.5)"><text x="0" y="0" font-family="Virgil, Segoe UI Emoji" font-size="28px" fill="#000000" text-anchor="start" style="white-space: pre;" direction="ltr" dominant-baseline="text-before-edge">24v</text></g><g stroke-linecap="round"><g transform="translate(201.8871865448209 41.75157308009642) rotate(0 17.736447265072457 0.5727970433250675)"><path d="M0.79 0.04 C8.98 0.4, 20.29 -0.1, 35.35 0.9 M-0.08 0.96 C9.9 0.5, 20.31 1.32, 35.55 1.05" stroke="#000000" stroke-width="1" fill="none"></path></g><g transform="translate(201.8871865448209 41.75157308009642) rotate(0 17.736447265072457 0.5727970433250675)"><path d="M19.62 7.16 C22.72 5.29, 28.6 2.66, 35.55 0.15 M18.86 7.97 C23.39 5.39, 28.32 3.85, 35.73 0.29" stroke="#000000" stroke-width="1" fill="none"></path></g><g transform="translate(201.8871865448209 41.75157308009642) rotate(0 17.736447265072457 0.5727970433250675)"><path d="M19.61 -4.95 C22.74 -3.41, 28.62 -2.62, 35.55 0.15 M18.84 -4.14 C23.4 -3.18, 28.34 -1.18, 35.73 0.29" stroke="#000000" stroke-width="1" fill="none"></path></g></g><mask></mask><g transform="translate(185.6451600319051 19.777066621445726) rotate(0 3.0659942626953125 17.5)"><text x="0" y="0" font-family="Virgil, Segoe UI Emoji" font-size="28px" fill="#000000" text-anchor="start" style="white-space: pre;" direction="ltr" dominant-baseline="text-before-edge">i</text></g></svg>