<svg version="1.1" xmlns="http://www.w3.org/2000/svg" viewBox="0 0 1259.8737216883028 1394.2151341513015" width="1259.8737216883028" height="1394.2151341513015">
  <!-- svg-source:excalidraw -->
  
  <defs>
    <style class="style-fonts">
      @font-face {
        font-family: "Virgil";
        src: url("https://excalidraw.com/Virgil.woff2");
      }
      @font-face {
        font-family: "Cascadia";
        src: url("https://excalidraw.com/Cascadia.woff2");
      }
    </style>
  </defs>
  <rect x="0" y="0" width="1259.8737216883028" height="1394.2151341513015" fill="#ffffff"></rect><g stroke-linecap="round"><g transform="translate(591.2995452916326 259.4948379814507) rotate(0 -0.015042386673030705 -68.4643339634235)"><path d="M1.53 -1.13 C2.66 -45.48, -0.85 -95.08, -0.94 -137.42 M-0.19 0.53 C0.9 -51.32, -0.21 -103.55, -1.78 -137.46" stroke="#000000" stroke-width="1" fill="none"></path></g></g><mask></mask><g stroke-linecap="round" transform="translate(270.1423450746739 77.36899705617799) rotate(0 99.62434447988602 111.00998384901585)"><path d="M-1.73 1.67 C69.81 -0.51, 137.81 -2.28, 201.25 0.08 M-0.04 -0.67 C60.15 -0.14, 119.69 -0.12, 198.61 -0.31 M197.57 1.46 C196.92 76.45, 198.28 157.12, 199.42 221.62 M199.32 0.85 C198.54 59.44, 199.43 117.86, 199.65 222.2 M200.43 220.7 C122.47 225.15, 41.33 221.45, -0.41 221.88 M198.73 221.15 C145.55 220.17, 90.22 221.55, -0.38 221.65 M-1.23 222.29 C1.09 168.47, 0.48 118.25, 1.42 0.26 M-0.27 222.07 C-2.3 151.98, -1.74 83.97, 0.14 -0.81" stroke="#000000" stroke-width="1" fill="none"></path></g><g stroke-linecap="round"><g transform="translate(270.68615183855115 152.23145973148976) rotate(0 9.453332625708356 16.949765734135283)"><path d="M0.05 -0.46 C8.92 14.07, 13.48 23.28, 19.29 32.66 M-0.84 -0.02 C5.71 10.62, 12.25 21.84, 19.74 34.36" stroke="#000000" stroke-width="1" fill="none"></path></g></g><mask></mask><g stroke-linecap="round"><g transform="translate(269.2933291316393 222.8011435483594) rotate(0 10.565058175023864 -18.518885085425637)"><path d="M-0.77 0.12 C4.49 -5.67, 7.67 -14.07, 19.38 -37.16 M-0.51 -0.75 C7.01 -13.66, 15.95 -27.51, 21.9 -36.11" stroke="#000000" stroke-width="1" fill="none"></path></g></g><mask></mask><g transform="translate(307.10334832939725 168.99619782423937) rotate(0 10.200958251953125 19.802461812755865)"><text x="0" y="0" font-family="Virgil, Segoe UI Emoji" font-size="31.683938900409387px" fill="#000000" text-anchor="start" style="white-space: pre;" direction="ltr" dominant-baseline="text-before-edge">C</text></g><g transform="translate(295.5532037701844 92.79323051002842) rotate(0 12.355194091796875 19.802461812755865)"><text x="0" y="0" font-family="Virgil, Segoe UI Emoji" font-size="31.683938900409387px" fill="#000000" text-anchor="start" style="white-space: pre;" direction="ltr" dominant-baseline="text-before-edge">D</text></g><g transform="translate(306.3426874783661 237.2975646325933) rotate(0 17.170555114746094 19.802461812755865)"><text x="0" y="0" font-family="Virgil, Segoe UI Emoji" font-size="31.683938900409387px" fill="#000000" text-anchor="start" style="white-space: pre;" direction="ltr" dominant-baseline="text-before-edge">R’</text></g><g stroke-linecap="round" transform="translate(468.9312504556784 255.76461427860772) rotate(0 4.410605238554297 4.642742356372963)"><path d="M2.59 0.67 C3.65 0.13, 5.96 -0.68, 6.94 -0.44 C7.91 -0.19, 8.26 1.15, 8.46 2.14 C8.65 3.14, 8.39 4.5, 8.09 5.55 C7.8 6.6, 7.42 7.78, 6.69 8.46 C5.97 9.13, 4.74 9.81, 3.74 9.61 C2.73 9.4, 1.13 7.98, 0.65 7.24 C0.16 6.5, 0.81 6.15, 0.81 5.16 C0.81 4.16, 0.09 2, 0.64 1.28 C1.18 0.55, 3.71 0.93, 4.09 0.82 C4.47 0.71, 2.95 0.61, 2.91 0.61 M7.18 1.07 C8.13 1.2, 9.75 1.72, 9.91 2.42 C10.06 3.13, 8.47 4.25, 8.1 5.28 C7.72 6.31, 8.45 7.74, 7.67 8.59 C6.89 9.45, 4.55 10.77, 3.43 10.43 C2.31 10.08, 1.41 7.43, 0.96 6.51 C0.51 5.59, 0.59 5.55, 0.74 4.91 C0.88 4.27, 1.22 3.54, 1.82 2.69 C2.41 1.83, 3.3 0.34, 4.3 -0.23 C5.3 -0.8, 7.42 -1, 7.8 -0.73 C8.18 -0.47, 6.93 1.03, 6.58 1.36" stroke="#000000" stroke-width="1" fill="none"></path></g><g transform="translate(425.6180785083468 93.20906798264667) rotate(0 11.167198181152344 19.802461812755865)"><text x="0" y="0" font-family="Virgil, Segoe UI Emoji" font-size="31.683938900409387px" fill="#000000" text-anchor="start" style="white-space: pre;" direction="ltr" dominant-baseline="text-before-edge">Q</text></g><g transform="translate(421.47628009900313 243.8835917880827) rotate(0 15.380638122558594 19.802461812755865)"><text x="0" y="0" font-family="Virgil, Segoe UI Emoji" font-size="31.683938900409387px" fill="#000000" text-anchor="start" style="white-space: pre;" direction="ltr" dominant-baseline="text-before-edge">Q'</text></g><g stroke-linecap="round"><g transform="translate(467.3942668164251 111.97138400101443) rotate(0 157.1565424187362 -1.7458514866634403)"><path d="M-0.77 -0.14 C116.27 1.81, 233.94 0.17, 313.7 -4.08 M0.34 -0.24 C78.32 -2.32, 155.92 -3.44, 315.08 -4.17" stroke="#000000" stroke-width="1" fill="none"></path></g></g><mask></mask><g stroke-linecap="round"><g transform="translate(478.23867957882453 259.84973985191584) rotate(0 56.478348910117404 0.34777959743479414)"><path d="M-0.03 1.72 C33.35 -2.75, 65.69 0.91, 111.14 -0.7 M0.88 0.98 C26.19 -0.84, 51.23 -1.7, 112.99 -0.41" stroke="#000000" stroke-width="1" fill="none"></path></g></g><mask></mask><g transform="translate(589.7675047283354 121.74825366099088) rotate(0 6.190185237036076 -11.053902208992753)" stroke="none"><path fill="#000000" d="M 0.45,-2.19 Q 0.45,-2.19 1.89,-1.91 3.33,-1.63 4.81,-2.60 6.29,-3.58 7.00,-4.75 7.70,-5.93 8.39,-7.50 9.09,-9.08 9.41,-10.64 9.74,-12.20 9.62,-13.56 9.50,-14.93 9.00,-16.03 8.50,-17.13 7.23,-18.56 5.96,-19.99 4.83,-20.35 3.70,-20.70 3.32,-20.81 2.94,-20.93 2.62,-21.15 2.30,-21.38 2.07,-21.70 1.84,-22.02 1.72,-22.39 1.61,-22.77 1.61,-23.16 1.62,-23.56 1.76,-23.93 1.89,-24.30 2.14,-24.60 2.38,-24.91 2.71,-25.12 3.04,-25.34 3.42,-25.43 3.80,-25.53 4.20,-25.50 4.59,-25.47 4.95,-25.32 5.31,-25.16 5.61,-24.90 5.90,-24.64 6.09,-24.30 6.29,-23.96 6.37,-23.57 6.44,-23.19 6.39,-22.80 6.34,-22.41 6.17,-22.06 5.99,-21.70 5.72,-21.42 5.44,-21.14 5.09,-20.97 4.74,-20.79 4.35,-20.74 3.96,-20.68 3.57,-20.75 3.19,-20.82 2.84,-21.02 2.50,-21.21 2.24,-21.50 1.97,-21.79 1.81,-22.15 1.66,-22.51 1.62,-22.90 1.59,-23.30 1.68,-23.68 1.77,-24.06 1.99,-24.39 2.20,-24.72 2.50,-24.97 2.81,-25.22 3.17,-25.36 3.54,-25.49 3.94,-25.51 4.33,-25.52 4.33,-25.52 4.33,-25.52 6.93,-24.35 9.53,-23.17 10.23,-22.28 10.93,-21.39 11.76,-20.07 12.59,-18.76 13.20,-17.02 13.81,-15.28 13.92,-13.35 14.02,-11.43 13.67,-9.44 13.32,-7.45 12.63,-5.45 11.94,-3.45 10.98,-1.80 10.02,-0.15 8.78,1.02 7.55,2.20 6.14,2.65 4.74,3.11 3.58,2.96 2.42,2.81 0.98,2.50 -0.45,2.19 -0.70,2.10 -0.96,2.01 -1.18,1.87 -1.41,1.73 -1.60,1.53 -1.79,1.34 -1.92,1.10 -2.05,0.87 -2.13,0.61 -2.20,0.35 -2.21,0.08 -2.22,-0.18 -2.17,-0.44 -2.12,-0.71 -2.00,-0.95 -1.88,-1.19 -1.71,-1.40 -1.54,-1.61 -1.33,-1.77 -1.11,-1.93 -0.86,-2.04 -0.61,-2.14 -0.35,-2.19 -0.08,-2.23 0.18,-2.21 0.45,-2.19 0.45,-2.19 L 0.45,-2.19 Z"></path></g><g stroke-linecap="round"><g transform="translate(592.0352414148973 97.75084764155122) rotate(0 -202.58230024784643 -38.47784655276416)"><path d="M-1.77 1.71 C1.19 -21.86, -1.45 -46.25, -4.07 -86.11 M0.48 0.65 C-2.24 -25.6, -1.52 -50.4, -2.05 -84.83 M-2.06 -85.78 C-95.56 -85.98, -188.2 -84.76, -404.58 -86.4 M-2.73 -85.97 C-121.19 -88.03, -239.74 -87.48, -403.84 -86.89 M-404.61 -87.75 C-402.8 -53.76, -404.92 -22.24, -403.87 5.68 M-403.42 -87.18 C-404.25 -65, -404.12 -46.3, -403.7 6.82 M-405.65 6.6 C-379.19 5.87, -355.54 8.01, -320.72 10.8 M-404.37 7.38 C-371.85 6.91, -339.54 9.18, -320.79 8.3" stroke="#000000" stroke-width="1" fill="none"></path></g></g><mask></mask><g stroke-linecap="round" transform="translate(788.5971647658749 74.34560594190083) rotate(0 99.62434447988596 111.00998384901585)"><path d="M-0.73 0.32 C57.83 -1.57, 115.02 0.33, 198.46 -1.08 M0.38 0.33 C74.96 -1.09, 151.95 -2.42, 199.39 -0.61 M197.58 1.55 C199.17 74.29, 196.5 147.93, 198.71 222.29 M198.63 0.63 C197.8 84.26, 197.62 170.49, 198.82 222.7 M197.5 222.59 C138.18 224.6, 76.83 224.15, 1.08 221.94 M200.08 222.52 C153.82 222.9, 107.42 222.31, -0.17 222.24 M-1.71 221.87 C-1.89 161.13, -0.15 103.86, -0.71 0.33 M0.76 221.76 C-1.68 143.46, -0.5 66.43, 0.64 -0.28" stroke="#000000" stroke-width="1" fill="none"></path></g><g stroke-linecap="round"><g transform="translate(789.1409715297522 149.20806861721263) rotate(0 10.073256145144683 17.42843707347579)"><path d="M0.32 0.75 C4.68 10.02, 12.05 17.44, 19.35 35.48 M0.33 -0.62 C8.96 14.2, 15.77 27.04, 19.82 34.25" stroke="#000000" stroke-width="1" fill="none"></path></g></g><mask></mask><g stroke-linecap="round"><g transform="translate(787.7481488228403 219.77775243408223) rotate(0 11.160734892372261 -18.43221989187535)"><path d="M0.75 -0.9 C8.12 -11.27, 13.6 -25.59, 22.94 -34.72 M-0.62 0.55 C8.82 -14.87, 16.34 -28.74, 21.71 -37.42" stroke="#000000" stroke-width="1" fill="none"></path></g></g><mask></mask><g transform="translate(825.5581680205981 165.97280670996219) rotate(0 10.200958251953125 19.802461812755865)"><text x="0" y="0" font-family="Virgil, Segoe UI Emoji" font-size="31.683938900409387px" fill="#000000" text-anchor="start" style="white-space: pre;" direction="ltr" dominant-baseline="text-before-edge">C</text></g><g transform="translate(814.0080234613855 89.76983939575126) rotate(0 12.355194091796875 19.802461812755865)"><text x="0" y="0" font-family="Virgil, Segoe UI Emoji" font-size="31.683938900409387px" fill="#000000" text-anchor="start" style="white-space: pre;" direction="ltr" dominant-baseline="text-before-edge">D</text></g><g stroke-linecap="round" transform="translate(987.3860701468792 252.74122316433056) rotate(0 4.4106052385543535 4.642742356372963)"><path d="M4.06 0.55 C4.83 -0.03, 5.75 -0.68, 6.57 -0.2 C7.38 0.28, 8.72 2.41, 8.94 3.43 C9.17 4.46, 8.34 5.06, 7.91 5.95 C7.48 6.84, 7.13 8.32, 6.37 8.78 C5.6 9.23, 4.33 8.64, 3.33 8.66 C2.32 8.67, 0.78 9.46, 0.35 8.85 C-0.07 8.24, 0.85 6.23, 0.79 4.99 C0.74 3.76, -0.43 2.24, 0 1.44 C0.44 0.65, 2.57 0.59, 3.41 0.22 C4.26 -0.16, 4.9 -0.72, 5.05 -0.79 M6.1 1.71 C6.76 2.35, 7.06 3.04, 7.51 3.55 C7.96 4.07, 8.74 4.24, 8.79 4.81 C8.84 5.37, 8.48 6.27, 7.81 6.93 C7.14 7.59, 5.6 8.77, 4.77 8.77 C3.95 8.76, 3.47 7.34, 2.85 6.91 C2.23 6.48, 1.43 7.14, 1.05 6.19 C0.67 5.25, 0.08 2.08, 0.56 1.22 C1.04 0.35, 2.83 1.03, 3.94 1 C5.05 0.97, 6.79 1.18, 7.23 1.05 C7.67 0.92, 6.86 0.46, 6.59 0.24" stroke="#000000" stroke-width="1" fill="none"></path></g><g transform="translate(944.0728981995479 90.18567686836951) rotate(0 11.167198181152344 19.802461812755865)"><text x="0" y="0" font-family="Virgil, Segoe UI Emoji" font-size="31.683938900409387px" fill="#000000" text-anchor="start" style="white-space: pre;" direction="ltr" dominant-baseline="text-before-edge">Q</text></g><g transform="translate(939.9310997902043 240.86020067380554) rotate(0 15.380638122558594 19.802461812755865)"><text x="0" y="0" font-family="Virgil, Segoe UI Emoji" font-size="31.683938900409387px" fill="#000000" text-anchor="start" style="white-space: pre;" direction="ltr" dominant-baseline="text-before-edge">Q'</text></g><g stroke-linecap="round"><g transform="translate(996.0295525626033 256.74640697754603) rotate(0 -358.42240386373396 57.447285565094944)"><path d="M0.02 1.79 C18.64 -0.6, 35.32 -2, 57.47 -0.21 M0.45 -0.86 C19.41 -0.34, 39.03 -0.04, 57.96 -1.93 M58.69 -1.69 C61.99 26.53, 60.41 52.54, 59.66 112.67 M58.29 -1.57 C58.84 26.05, 59.27 54.4, 59.88 114.86 M60.08 114.56 C-189.95 113.4, -441.57 113.44, -777.35 115.2 M59.84 113.87 C-245.6 117.34, -551.48 117.86, -777.52 114.89 M-777.1 115.39 C-775.45 86.24, -777.31 59.86, -776.55 4.05 M-777.54 115.69 C-777.65 78.78, -775.94 42.55, -774.06 5.86 M-773.76 7.14 C-767.19 5.63, -757.5 5.17, -737.02 5.98 M-774.87 5.56 C-763.85 6.28, -751.73 4.83, -735.8 4.52" stroke="#000000" stroke-width="1" fill="none"></path></g></g><mask></mask><g stroke-linecap="round"><g transform="translate(985.9845998951101 107.63273588037265) rotate(0 65.72527395942666 -1.0547821133336868)"><path d="M-1.46 -0.5 C38.01 -0.23, 73.04 -3.92, 131.63 -1.85 M0.65 0.37 C46.24 0.08, 90.86 -1.29, 132.91 -1.52" stroke="#000000" stroke-width="1" fill="none"></path></g></g><mask></mask><g stroke-linecap="round" transform="translate(658.5865951382222 108.67658614273734) rotate(0 3.434710831198231 2.060826498718882)"><path d="M5.64 0.84 C6.42 0.85, 6.04 0.43, 6.26 0.77 C6.48 1.11, 7.23 2.31, 6.98 2.85 C6.73 3.4, 5.46 3.74, 4.74 4.03 C4.03 4.33, 3.19 4.59, 2.67 4.61 C2.15 4.63, 1.97 4.55, 1.62 4.15 C1.28 3.76, 0.85 2.94, 0.58 2.26 C0.31 1.59, -0.3 0.35, 0 0.1 C0.3 -0.15, 1.58 0.64, 2.4 0.77 C3.21 0.9, 4.49 0.74, 4.9 0.87 C5.31 1, 4.7 1.63, 4.87 1.56 M2.39 1.09 C2.92 0.54, 3.21 -1.11, 4.08 -1.14 C4.96 -1.16, 6.99 0.33, 7.63 0.96 C8.26 1.58, 8.4 2.4, 7.88 2.6 C7.36 2.8, 5.31 1.89, 4.52 2.15 C3.73 2.41, 3.47 4.03, 3.14 4.15 C2.8 4.27, 2.84 3.02, 2.51 2.87 C2.17 2.71, 1.68 3.54, 1.12 3.21 C0.56 2.89, -1.02 1.44, -0.85 0.91 C-0.67 0.37, 1.47 0.31, 2.16 -0.02 C2.85 -0.34, 3.47 -1.23, 3.3 -1.07" stroke="#000000" stroke-width="1" fill="none"></path></g><g transform="translate(661.3446754612859 109.82727532459347) rotate(0 1.2158925289297713 1.2158925289299134)" stroke="none"><path fill="#000000" d="M 2.40,-0.53 Q 2.40,-0.53 2.63,0.27 2.86,1.09 2.84,2.56 2.81,4.03 2.00,4.71 1.18,5.39 -0.14,5.34 -1.48,5.29 -2.28,4.14 -3.08,3.00 -2.89,1.14 -2.71,-0.70 -1.72,-1.65 -0.72,-2.60 0.69,-3.00 2.12,-3.40 3.26,-3.18 4.40,-2.96 5.35,-1.84 6.30,-0.73 6.17,1.31 6.05,3.37 5.22,4.16 4.40,4.95 3.26,5.02 2.12,5.09 1.07,4.80 0.02,4.51 -1.29,4.07 -2.61,3.63 -3.57,2.92 -4.53,2.20 -5.04,1.11 -5.55,0.02 -5.33,-1.09 -5.10,-2.21 -3.83,-3.34 -2.56,-4.46 -1.36,-4.61 -0.15,-4.75 1.24,-4.69 2.63,-4.63 4.00,-4.28 5.37,-3.92 6.36,-2.88 7.34,-1.85 7.78,-0.41 8.21,1.02 7.81,2.53 7.40,4.05 6.37,5.07 5.33,6.09 4.34,6.56 3.35,7.03 1.75,7.05 0.16,7.06 -0.80,6.61 -1.76,6.16 -2.75,4.80 -3.75,3.44 -3.76,1.93 -3.77,0.42 -2.78,-1.01 -1.79,-2.45 -0.20,-2.95 1.39,-3.45 2.52,-3.20 3.65,-2.94 4.57,-2.17 5.49,-1.41 5.78,0.36 6.07,2.14 5.72,3.21 5.37,4.27 4.33,4.98 3.29,5.68 -0.48,4.36 -4.27,3.03 -4.49,2.46 -4.72,1.90 -4.75,1.29 -4.78,0.68 -4.62,0.09 -4.45,-0.49 -4.11,-1.00 -3.76,-1.50 -3.28,-1.87 -2.79,-2.24 -2.21,-2.43 -1.63,-2.63 -1.02,-2.62 -0.41,-2.62 0.16,-2.43 0.74,-2.23 1.22,-1.86 1.71,-1.49 2.05,-0.98 2.39,-0.47 2.56,0.10 2.72,0.69 2.68,1.30 2.65,1.91 2.42,2.48 2.19,3.05 1.80,3.51 1.40,3.98 0.88,4.29 0.35,4.60 -0.24,4.73 -0.83,4.86 -1.44,4.80 -2.05,4.73 -2.60,4.47 -3.16,4.21 -3.60,3.79 -4.04,3.37 -4.33,2.83 -4.61,2.29 -4.71,1.69 -4.80,1.08 -4.70,0.48 -4.60,-0.11 -4.32,-0.65 -4.03,-1.19 -3.58,-1.61 -3.14,-2.03 -2.58,-2.28 -2.03,-2.54 -1.42,-2.60 -0.81,-2.67 -0.22,-2.54 0.37,-2.40 0.89,-2.09 1.41,-1.77 1.81,-1.30 2.20,-0.84 2.20,-0.84 2.20,-0.84 0.96,-0.09 -0.27,0.65 -0.35,1.99 -0.43,3.33 1.02,3.45 2.48,3.57 2.90,2.39 3.32,1.20 2.34,0.60 1.35,0.00 1.76,1.20 2.16,2.40 0.72,2.34 -0.71,2.28 0.05,1.35 0.81,0.42 0.61,-1.02 0.41,-2.48 1.51,-1.67 2.61,-0.87 2.52,0.60 2.43,2.08 1.55,1.25 0.66,0.41 -0.73,1.30 -2.13,2.18 -2.27,1.36 -2.40,0.53 -2.43,0.23 -2.46,-0.05 -2.41,-0.35 -2.37,-0.64 -2.26,-0.91 -2.15,-1.19 -1.97,-1.43 -1.80,-1.67 -1.57,-1.86 -1.35,-2.05 -1.08,-2.18 -0.81,-2.32 -0.53,-2.38 -0.24,-2.45 0.05,-2.44 0.35,-2.43 0.63,-2.35 0.92,-2.28 1.18,-2.13 1.44,-1.99 1.66,-1.79 1.88,-1.58 2.04,-1.34 2.20,-1.09 2.30,-0.81 2.40,-0.53 2.40,-0.53 L 2.40,-0.53 Z"></path></g><g transform="translate(650.2159516226124 120.80027770102578) rotate(0 13.08599853515625 22.5)"><text x="0" y="0" font-family="Virgil, Segoe UI Emoji" font-size="36px" fill="#000000" text-anchor="start" style="white-space: pre;" direction="ltr" dominant-baseline="text-before-edge">B</text></g><g transform="translate(1125.4420902729535 82.16288833562595) rotate(0 14.995536804199219 29.108184411430003)"><text x="0" y="0" font-family="Virgil, Segoe UI Emoji" font-size="46.573095058288px" fill="#000000" text-anchor="start" style="white-space: pre;" direction="ltr" dominant-baseline="text-before-edge">C</text></g><g transform="translate(1119.7038757565606 106.51417030871323) rotate(0 -0.36299445585882495 -0.18149722792946932)" stroke="none"><path fill="#000000" d="M -1.09,2.18 Q -1.09,2.18 -1.34,2.03 -1.60,1.89 -0.51,1.51 0.58,1.14 0.49,-0.35 0.40,-1.84 -0.95,-1.56 -2.30,-1.28 -1.69,-0.36 -1.09,0.55 0.11,-0.31 1.31,-1.18 -0.30,-0.90 -1.92,-0.62 -2.74,-0.68 -3.57,-0.74 -3.52,-1.14 -3.47,-1.55 -3.33,-1.92 -3.18,-2.30 -2.95,-2.63 -2.72,-2.96 -2.42,-3.23 -2.11,-3.49 -1.75,-3.68 -1.40,-3.86 -1.00,-3.96 -0.61,-4.05 -0.21,-4.05 0.19,-4.05 0.58,-3.95 0.97,-3.85 1.33,-3.66 1.68,-3.47 1.98,-3.20 2.28,-2.94 2.51,-2.60 2.74,-2.27 2.88,-1.89 3.02,-1.51 3.07,-1.11 3.11,-0.71 3.11,-0.68 3.11,-0.65 3.01,-0.12 2.91,0.40 2.65,0.87 2.39,1.35 1.98,1.71 1.58,2.07 1.09,2.29 0.59,2.51 0.05,2.55 -0.48,2.60 -1.01,2.47 -1.53,2.34 -1.99,2.06 -2.45,1.77 -2.79,1.35 -3.13,0.92 -3.32,0.42 -3.51,-0.08 -3.53,-0.62 -3.54,-1.16 -3.39,-1.68 -3.23,-2.20 -2.92,-2.64 -2.60,-3.08 -2.16,-3.40 -1.73,-3.72 -1.21,-3.88 -0.69,-4.04 -0.15,-4.03 0.38,-4.02 0.89,-3.83 1.40,-3.65 1.82,-3.31 2.25,-2.98 2.54,-2.52 2.84,-2.07 2.97,-1.54 3.10,-1.02 3.06,-0.48 3.02,0.05 2.81,0.55 2.60,1.05 2.24,1.46 1.88,1.86 1.41,2.13 0.94,2.40 0.40,2.50 -0.12,2.61 -0.65,2.54 -1.19,2.47 -1.68,2.23 -2.16,1.99 -2.55,1.61 -2.93,1.23 -3.18,0.74 -3.42,0.26 -3.50,-0.24 -3.57,-0.74 -3.52,-1.14 -3.47,-1.54 -3.33,-1.92 -3.18,-2.30 -2.95,-2.63 -2.72,-2.96 -2.42,-3.23 -2.11,-3.49 -1.75,-3.68 -1.40,-3.86 -1.00,-3.96 -0.61,-4.05 -0.21,-4.05 0.19,-4.05 0.58,-3.95 0.97,-3.85 1.33,-3.66 1.68,-3.47 1.98,-3.20 2.28,-2.94 2.51,-2.60 2.74,-2.27 2.88,-1.89 3.02,-1.51 3.07,-1.11 3.11,-0.71 3.39,-0.43 3.67,-0.15 3.58,0.91 3.49,1.97 2.28,3.09 1.07,4.20 -1.08,3.13 -3.23,2.06 -3.70,0.72 -4.17,-0.61 -4.08,-1.68 -3.99,-2.75 -2.37,-3.97 -0.75,-5.18 0.34,-4.96 1.44,-4.73 2.21,-3.48 2.98,-2.22 2.10,-0.18 1.22,1.85 -0.63,1.68 -2.49,1.51 -2.51,-0.19 -2.54,-1.91 -1.30,-2.31 -0.06,-2.72 0.51,-2.45 1.09,-2.18 1.33,-2.01 1.58,-1.85 1.77,-1.64 1.97,-1.42 2.12,-1.16 2.26,-0.90 2.33,-0.62 2.41,-0.34 2.41,-0.04 2.42,0.24 2.36,0.53 2.29,0.81 2.16,1.08 2.03,1.34 1.84,1.56 1.65,1.79 1.41,1.96 1.17,2.13 0.90,2.24 0.62,2.35 0.33,2.39 0.04,2.43 -0.24,2.40 -0.53,2.37 -0.81,2.27 -1.09,2.18 -1.09,2.18 L -1.09,2.18 Z"></path></g><g stroke-linecap="round"><g transform="translate(64.88621458746536 184.5365449090205) rotate(0 102.19087964866202 0.20612418015474532)"><path d="M0.02 1.02 C77.41 -0.2, 153.51 -2.96, 204.19 1.39 M0.28 -0.58 C49.46 0.52, 100.26 0.72, 204.36 0.18" stroke="#000000" stroke-width="1" fill="none"></path></g></g><mask></mask><g stroke-linecap="round"><g transform="translate(787.2430654588928 184.11435605426544) rotate(0 -46.64092725945102 86.86408238735223)"><path d="M0.28 -1.65 C-19.17 -2.11, -40.35 -0.38, -92.82 -0.63 M0.6 -0.31 C-18.72 0.29, -38.94 0.64, -93.88 1.23 M-91.83 1.78 C-94.53 69.78, -92.26 140.04, -88.15 175.01 M-93.39 1.37 C-93.1 71.3, -93.14 140.44, -89.62 175.46" stroke="#000000" stroke-width="1" fill="none"></path></g></g><mask></mask><g transform="translate(707.0450957936765 394.2635789111515) rotate(0 11.321695350607797 -18.42348607053478)" stroke="none"><path fill="#000000" d="M -0.66,-1.85 Q -0.66,-1.85 1.67,-2.60 4.00,-3.34 6.63,-4.12 9.26,-4.89 11.92,-5.67 14.57,-6.45 17.03,-7.29 19.50,-8.13 21.29,-8.86 23.08,-9.59 24.10,-10.34 25.12,-11.09 25.81,-11.96 26.50,-12.84 27.06,-14.01 27.63,-15.19 27.98,-16.66 28.32,-18.12 28.30,-19.88 28.28,-21.65 27.85,-23.29 27.42,-24.94 26.50,-26.09 25.59,-27.24 24.28,-28.21 22.96,-29.18 20.99,-30.10 19.01,-31.01 16.42,-31.85 13.82,-32.68 11.08,-33.35 8.33,-34.01 5.78,-34.42 3.23,-34.83 1.19,-34.95 -0.85,-35.06 -2.27,-34.89 -3.68,-34.72 -5.59,-34.36 -7.51,-34.01 -7.78,-34.00 -8.06,-33.99 -8.33,-34.07 -8.59,-34.14 -8.82,-34.30 -9.04,-34.46 -9.21,-34.69 -9.37,-34.91 -9.45,-35.18 -9.54,-35.44 -9.53,-35.72 -9.53,-35.99 -9.43,-36.25 -9.34,-36.52 -9.17,-36.73 -9.00,-36.95 -8.76,-37.10 -8.53,-37.25 -8.26,-37.32 -7.99,-37.39 -7.72,-37.37 -7.44,-37.35 -7.19,-37.24 -6.93,-37.13 -6.72,-36.95 -6.52,-36.77 -6.38,-36.53 -6.24,-36.29 -6.19,-36.01 -6.13,-35.74 -6.17,-35.47 -6.20,-35.19 -6.32,-34.94 -6.45,-34.70 -6.64,-34.50 -6.83,-34.30 -7.08,-34.18 -7.33,-34.05 -7.60,-34.01 -7.88,-33.97 -8.15,-34.02 -8.42,-34.07 -8.66,-34.21 -8.91,-34.34 -9.09,-34.55 -9.28,-34.75 -9.39,-35.01 -9.50,-35.26 -9.53,-35.53 -9.55,-35.81 -9.49,-36.08 -9.42,-36.35 -9.27,-36.58 -9.13,-36.82 -8.91,-36.99 -8.70,-37.17 -8.44,-37.27 -8.18,-37.36 -8.18,-37.36 -8.18,-37.36 -6.01,-37.65 -3.84,-37.94 -2.27,-37.92 -0.71,-37.89 1.47,-37.79 3.66,-37.70 6.33,-37.32 9.01,-36.94 11.87,-36.31 14.74,-35.69 17.55,-34.88 20.36,-34.07 22.74,-33.06 25.12,-32.06 26.82,-30.73 28.52,-29.41 29.69,-27.67 30.85,-25.94 31.41,-23.85 31.97,-21.76 32.05,-19.48 32.14,-17.19 31.61,-15.25 31.09,-13.32 30.16,-11.79 29.24,-10.26 28.08,-9.21 26.93,-8.17 25.57,-7.47 24.22,-6.76 22.36,-6.03 20.50,-5.30 18.01,-4.38 15.51,-3.45 12.89,-2.59 10.28,-1.72 7.75,-0.84 5.22,0.03 2.94,0.94 0.66,1.85 0.43,1.90 0.20,1.96 -0.03,1.95 -0.27,1.95 -0.50,1.89 -0.73,1.83 -0.94,1.71 -1.14,1.60 -1.32,1.44 -1.49,1.28 -1.63,1.08 -1.76,0.88 -1.84,0.66 -1.92,0.43 -1.94,0.20 -1.97,-0.03 -1.93,-0.27 -1.90,-0.50 -1.81,-0.72 -1.72,-0.94 -1.59,-1.14 -1.45,-1.33 -1.27,-1.48 -1.09,-1.64 -0.87,-1.74 -0.66,-1.85 -0.66,-1.85 L -0.66,-1.85 Z"></path></g><g stroke-linecap="round"><g transform="translate(706.154140224582 393.7461351866906) rotate(0 -316.1651102513685 -2.2330550481032416)"><path d="M0.8 -0.17 C-160.29 -3.85, -320.46 -4.08, -633.13 -4.47 M0.39 0.01 C-205.57 -0.01, -411.04 -1.03, -632.75 -4.04" stroke="#000000" stroke-width="1" fill="none"></path></g></g><mask></mask><g transform="translate(36.0167780477027 161.2240690881253) rotate(0 11.807998657226562 22.5)"><text x="0" y="0" font-family="Virgil, Segoe UI Emoji" font-size="36px" fill="#000000" text-anchor="start" style="white-space: pre;" direction="ltr" dominant-baseline="text-before-edge">A</text></g><g transform="translate(30.91980160765968 371.219498417903) rotate(0 22.373992919921875 22.5)"><text x="0" y="0" font-family="Virgil, Segoe UI Emoji" font-size="36px" fill="#000000" text-anchor="start" style="white-space: pre;" direction="ltr" dominant-baseline="text-before-edge">CL</text></g><g stroke-linecap="round"><g transform="translate(66.26380806677707 695.1123699450231) rotate(0 567.4220624971406 2.815747414450925)"><path d="M-0.21 0.3 C361.72 -1.05, 722.59 1.07, 1135.06 5.23 M0.02 0.14 C406.85 4.82, 813.92 6.73, 1134.64 5.24" stroke="#000000" stroke-width="1" fill="none"></path></g><g transform="translate(66.26380806677707 695.1123699450231) rotate(0 567.4220624971406 2.815747414450925)"><path d="M1105.94 16.29 C1117.19 11.01, 1125.77 8.93, 1136.53 5.42 M1106.51 15.89 C1115.7 11.94, 1125.62 8.37, 1135.5 5.42" stroke="#000000" stroke-width="1" fill="none"></path></g><g transform="translate(66.26380806677707 695.1123699450231) rotate(0 567.4220624971406 2.815747414450925)"><path d="M1105.91 -4.23 C1117.16 -2.98, 1125.75 1.48, 1136.53 5.42 M1106.48 -4.63 C1115.87 -1.22, 1125.79 2.58, 1135.5 5.42" stroke="#000000" stroke-width="1" fill="none"></path></g></g><mask></mask><g stroke-linecap="round"><g transform="translate(65.3058010574182 695.044230518499) rotate(0 -0.3568385303594823 -77.62041897256157)"><path d="M-0.02 -0.93 C-1.6 -37.29, -1.16 -71.32, -0.54 -153.97 M0.56 -0.66 C-0.13 -48.22, 0.04 -94.35, -1.27 -154.58" stroke="#000000" stroke-width="1" fill="none"></path></g><g transform="translate(65.3058010574182 695.044230518499) rotate(0 -0.3568385303594823 -77.62041897256157)"><path d="M9.44 -127.5 C6.16 -134.08, 4.52 -138.4, 0.01 -153.55 M10.01 -127.22 C5.58 -135.94, 3.03 -143.24, -0.71 -154.16" stroke="#000000" stroke-width="1" fill="none"></path></g><g transform="translate(65.3058010574182 695.044230518499) rotate(0 -0.3568385303594823 -77.62041897256157)"><path d="M-11.08 -127.16 C-9.56 -133.98, -6.4 -138.38, 0.01 -153.55 M-10.51 -126.88 C-8.66 -135.76, -4.94 -143.17, -0.71 -154.16" stroke="#000000" stroke-width="1" fill="none"></path></g></g><mask></mask><g stroke-linecap="round"><g transform="translate(63.069276694515224 671.4703127583994) rotate(0 74.50699553884931 -61.25660268074418)"><path d="M1.15 -0.92 C25.87 -2.45, 54.93 -1.19, 69.53 -3.41 M0.85 -0.56 C16.79 -1.3, 34.49 -1.22, 69.87 -3.02 M72.17 -2.11 C69.1 -31.29, 70.31 -56.94, 68.41 -120.74 M70.74 -1.56 C71.32 -31.28, 70.76 -60.12, 68.08 -119.02 M66.78 -119.83 C92.86 -120.28, 115.54 -120.22, 146.45 -122.7 M67.56 -118.87 C84.63 -118.96, 101.39 -120.24, 145.51 -122.03 M144.67 -122.73 C145.14 -80, 148.98 -38.6, 148.01 -0.34 M145.94 -122.27 C146.05 -74.4, 146.74 -26.67, 148.05 0.21" stroke="#000000" stroke-width="1" fill="none"></path></g></g><mask></mask><g stroke-linecap="round"><g transform="translate(212.09884572620695 672.7327522999133) rotate(0 73.14381117976473 -60.55156622265051)"><path d="M0.15 -0.72 C18.23 -1.13, 33.96 -0.71, 70.76 -2.7 M-0.76 -0.4 C15.64 0.16, 29.76 -1.49, 70.5 -2.7 M71.35 -3.87 C69.31 -30.3, 70.3 -55.65, 70.32 -120.14 M70.3 -3.13 C69.7 -29.47, 69.63 -55, 68.82 -120.47 M69.58 -120.87 C86.93 -118.97, 104.94 -119.76, 145.27 -122.89 M68.88 -120.39 C87.11 -119.01, 105.5 -120.98, 145.23 -121.11 M144 -121.69 C144.37 -89.84, 146.48 -53.42, 146.53 1.79 M144.05 -122.25 C145.08 -83.11, 145.93 -43.23, 147.05 -0.26" stroke="#000000" stroke-width="1" fill="none"></path></g></g><mask></mask><g stroke-linecap="round"><g transform="translate(360.6698843508344 673.9357566612462) rotate(0 73.47752459670619 -60.96299638349356)"><path d="M-0.91 -1.87 C15.34 0.59, 29.36 -1.52, 72.59 -3.34 M0.03 0.56 C21.08 0.64, 43.62 -1.42, 69.79 -3.3 M70.45 -1.59 C68.83 -33.49, 71.15 -61.69, 68.36 -120.74 M69.77 -1.88 C70.21 -33.55, 69.27 -66.29, 68.29 -120.31 M67.99 -118.03 C95.69 -120, 123.24 -122.44, 143.27 -121.87 M69.42 -119.44 C94.5 -119.94, 119.56 -122.28, 144.03 -121.43 M144.53 -122.49 C148.37 -98.45, 146.41 -70.42, 147.86 -1.42 M144.8 -122.32 C146.17 -77.59, 148.63 -33.04, 147.58 -0.32" stroke="#000000" stroke-width="1" fill="none"></path></g></g><mask></mask><g stroke-linecap="round"><g transform="translate(508.899648419046 673.4156147664598) rotate(0 73.95150501185299 -60.56829253767202)"><path d="M1.94 0.12 C24.97 0.34, 47.96 -3.57, 68.78 -1.54 M-0.25 -0.34 C15.32 -0.77, 28.46 0.36, 70.8 -3.15 M70.31 -3.31 C68.16 -43.82, 70.26 -84.62, 68.02 -120.62 M70.04 -2.26 C69.59 -44.22, 68.32 -86.39, 67.82 -118.78 M69.28 -117.57 C88.27 -120.14, 109.14 -120.5, 145.19 -123.19 M68.09 -119.56 C93.31 -119.98, 119.71 -120.74, 145.71 -120.83 M144.65 -122.77 C146.4 -82.68, 148.14 -44.37, 148.15 2.06 M144.81 -122.66 C145.7 -86.89, 145.9 -50.97, 147.01 0.87" stroke="#000000" stroke-width="1" fill="none"></path></g></g><mask></mask><g stroke-linecap="round"><g transform="translate(655.5386933162139 675.5236994262962) rotate(0 74.68150668495537 -61.66888649153108)"><path d="M1.64 0 C18.23 1.08, 35.58 -3.1, 69.79 -2.76 M0.34 -0.17 C14.49 0.54, 29.78 -1.25, 70.89 -1.81 M71.03 -3.49 C68.39 -49.01, 67.02 -94.22, 69.89 -121.46 M70.44 -2.3 C68.91 -28.19, 68.78 -53.15, 69.22 -120.12 M66.55 -120.21 C95.07 -120.41, 119.83 -120.91, 144.61 -120.12 M69.45 -118.92 C88.84 -120.53, 107.21 -121.24, 144.78 -122.47 M146.81 -123.72 C144.8 -80.15, 144.91 -37.05, 149.02 -0.29 M145.03 -122.63 C144.95 -83.89, 146.41 -43.71, 148.11 0.38" stroke="#000000" stroke-width="1" fill="none"></path></g></g><mask></mask><g stroke-linecap="round"><g transform="translate(804.7859976001693 674.9182336888358) rotate(0 73.3118352877467 -60.88215424948646)"><path d="M-1.24 0.94 C21.02 -0.08, 39.28 -2.6, 70.84 -1.99 M0.85 -0.41 C16.02 -0.43, 31.17 -0.26, 71.32 -2.81 M69.48 -1.26 C70.09 -26.84, 72.3 -52.22, 67.8 -120.93 M70.51 -2.14 C71.09 -28.16, 70.58 -55.53, 67.49 -120.42 M68.74 -120.26 C87.65 -118.73, 106.52 -121.54, 143.63 -122.61 M69.31 -120.18 C94.77 -120.62, 122.67 -121.25, 145.64 -122.7 M144.93 -121.77 C146.17 -77.02, 147.91 -32.56, 147.46 -1.01 M145.97 -121.98 C147.19 -73.95, 148.75 -25.79, 147.24 0.84" stroke="#000000" stroke-width="1" fill="none"></path></g></g><mask></mask><g stroke-linecap="round"><g transform="translate(952.2169046717437 676.1291651637563) rotate(0 74.37399056504682 -61.03568104837606)"><path d="M-0.78 1.61 C21.5 -1.09, 45.42 -2.06, 71.75 -4.14 M-0.4 -0.6 C19.36 -0.55, 37.77 -1.62, 71.5 -2.85 M71.52 -2.98 C71.57 -40.61, 69.04 -76.84, 70.39 -118.12 M70.99 -2.86 C69.51 -44.88, 67.45 -85.26, 68.87 -118.91 M68.81 -119.17 C84.15 -121.9, 100.88 -120.06, 146.22 -123.78 M68.45 -120.23 C92.47 -120.03, 117.59 -120.64, 144.41 -122.34 M145.93 -120.15 C144.69 -81.84, 146.63 -43.32, 149.52 1.71 M145.55 -121.25 C146.92 -75.36, 147.17 -28.41, 147.59 -0.37" stroke="#000000" stroke-width="1" fill="none"></path></g></g><mask></mask><g stroke-linecap="round"><g transform="translate(1101.2832271366588 676.5839366829969) rotate(0 73.86381014340759 -60.615930118964)"><path d="M1.13 1.9 C16.46 -0.61, 32.51 -0.24, 69.18 -3.44 M-0.86 0.2 C26.06 -1.07, 51.07 -2.41, 70.05 -2.47 M71.06 -2.29 C68.73 -42.8, 67.01 -83.39, 68.44 -117.54 M71.06 -3.09 C71.38 -38.36, 70.88 -75.46, 68.37 -119.14 M70.05 -119.18 C84.23 -119.5, 101.75 -119.75, 145.13 -122.13 M67.79 -120.45 C96.47 -120.43, 124.43 -120.51, 144.84 -121.36 M145.83 -123.13 C146.48 -89.04, 145.66 -53.65, 148.59 1.29 M144.64 -122.78 C143.67 -95.56, 145.09 -70.74, 148.08 0.37" stroke="#000000" stroke-width="1" fill="none"></path></g></g><mask></mask><g stroke-linecap="round"><g transform="translate(74.21791185412553 881.9961477924958) rotate(0 567.3142556981386 2.8258731272924535)"><path d="M0.72 0.38 C448.31 3.23, 897.66 5.03, 1134.78 5.8 M-0.15 -0.14 C242.28 2.21, 484.39 3.02, 1134.37 5.27" stroke="#000000" stroke-width="1" fill="none"></path></g><g transform="translate(74.21791185412553 881.9961477924958) rotate(0 567.3142556981386 2.8258731272924535)"><path d="M1107.94 16.37 C1116.12 11.01, 1128.77 6.4, 1135.57 6.85 M1105.77 15.07 C1112.81 13.23, 1118.92 10.33, 1134.55 5.53" stroke="#000000" stroke-width="1" fill="none"></path></g><g transform="translate(74.21791185412553 881.9961477924958) rotate(0 567.3142556981386 2.8258731272924535)"><path d="M1108.01 -4.15 C1116.24 -1.4, 1128.85 2.11, 1135.57 6.85 M1105.84 -5.45 C1112.68 -2.91, 1118.78 -1.43, 1134.55 5.53" stroke="#000000" stroke-width="1" fill="none"></path></g></g><mask></mask><g stroke-linecap="round"><g transform="translate(73.25990484476665 881.9280083659717) rotate(0 -0.30807327382422045 -78.09147466602033)"><path d="M0.94 -1.16 C-0.63 -51.72, -1.83 -102.91, -0.24 -156.73 M-0.36 0.55 C-0.08 -31.55, -1.2 -64.18, -1.56 -154.19" stroke="#000000" stroke-width="1" fill="none"></path></g><g transform="translate(73.25990484476665 881.9280083659717) rotate(0 -0.30807327382422045 -78.09147466602033)"><path d="M9.84 -127.23 C4.98 -135.1, 0.88 -143.67, 0.02 -155.92 M8.54 -125.53 C6.7 -131.31, 3.79 -137.61, -1.29 -153.38" stroke="#000000" stroke-width="1" fill="none"></path></g><g transform="translate(73.25990484476665 881.9280083659717) rotate(0 -0.30807327382422045 -78.09147466602033)"><path d="M-10.68 -127.08 C-8.65 -135.19, -5.85 -143.81, 0.02 -155.92 M-11.98 -125.38 C-9.56 -131.12, -8.21 -137.45, -1.29 -153.38" stroke="#000000" stroke-width="1" fill="none"></path></g></g><mask></mask><g stroke-linecap="round"><g transform="translate(74.87847070916678 862.3761485413381) rotate(0 572.8626422550294 -59.39889388236597)"><path d="M-0.06 -0.92 C50.24 0.33, 102.74 -0.66, 184.43 -4.93 M0.63 -0.94 C40.69 -0.04, 81.49 -0.3, 186.01 -2.58 M187.63 -2.07 C186.57 -46.23, 184.67 -89.8, 183.04 -124.24 M184.9 -4.16 C184.89 -34.06, 184.41 -65.08, 183.12 -124.43 M185.12 -122.8 C292.19 -122.59, 399.77 -122.27, 516.11 -122.89 M184.38 -123.98 C271.52 -121.68, 359.85 -121.72, 516.74 -122.27 M517.47 -120.32 C517.05 -81.59, 517.12 -46.89, 516.74 4.79 M517.38 -122.68 C516.31 -91.88, 517.46 -61.99, 517.99 5 M517.74 4.67 C629.65 5.75, 742.53 5.53, 904.62 2.49 M518.31 5.63 C596.74 5.69, 675.27 5.13, 903.8 4.03 M903.35 4.06 C904.41 -26.45, 902.76 -54.4, 902.44 -113.54 M902.84 3.93 C903.47 -35.97, 904.39 -75.77, 902.88 -116.04 M902.65 -116.65 C961.22 -112.14, 1020.2 -113.39, 1145.78 -115.46 M903.52 -114.69 C971.47 -116.53, 1037.89 -116.32, 1144.44 -115.43" stroke="#000000" stroke-width="1" fill="none"></path></g></g><mask></mask><g stroke-linecap="round"><g transform="translate(260.2051284453855 856.6627119025466) rotate(0 -2.570021776327792 259.7073869606497)"><path d="M0.03 0.42 C-3.14 140.29, -3.53 280.7, -5.17 519" stroke="#000000" stroke-width="1.5" fill="none" stroke-dasharray="8 9"></path></g></g><mask></mask><g stroke-linecap="round"><g transform="translate(284.3585480294737 674.0334425418534) rotate(0 -1.6491667493430668 353.43146074239144)"><path d="M-0.71 -0.08 C-2.86 164.02, -2.96 327.87, -2.05 706.94" stroke="#000000" stroke-width="1.5" fill="none" stroke-dasharray="8 9"></path></g></g><mask></mask><g stroke-linecap="round"><g transform="translate(577.7451024248561 676.2476806882337) rotate(0 -1.429696796305734 353.2217118305338)"><path d="M0 0.17 C-1.16 163.88, -1.51 326.85, -2.86 706.27" stroke="#000000" stroke-width="1.5" fill="none" stroke-dasharray="8 9"></path></g></g><mask></mask><g stroke-linecap="round"><g transform="translate(728.3132963787119 676.2476806882337) rotate(0 -1.290041109939125 353.6308767792953)"><path d="M-0.43 0.47 C0.75 205.67, 0.71 411.13, -2.84 706.79" stroke="#000000" stroke-width="1.5" fill="none" stroke-dasharray="8 9"></path></g></g><mask></mask><g stroke-linecap="round"><g transform="translate(874.453014039808 676.2476806882337) rotate(0 -0.7290453480134147 353.2571833891047)"><path d="M0.75 0.7 C2.14 273.24, 1.27 544.95, -2.83 705.81" stroke="#000000" stroke-width="1.5" fill="none" stroke-dasharray="8 9"></path></g></g><mask></mask><g stroke-linecap="round"><g transform="translate(1023.9140889204742 677.3547997614239) rotate(0 -1.2596759775955206 353.0966517967356)"><path d="M0.26 0.26 C-0.37 200.85, -0.43 400.7, -2.78 705.93" stroke="#000000" stroke-width="1.5" fill="none" stroke-dasharray="8 9"></path></g></g><mask></mask><g stroke-linecap="round"><g transform="translate(1172.4877431036584 677.5751659748923) rotate(0 -0.8131629313004396 352.9396169421447)"><path d="M-0.29 -0.76 C1.91 234.84, 1.19 471.32, -2.57 706.64" stroke="#000000" stroke-width="1.5" fill="none" stroke-dasharray="8 9"></path></g></g><mask></mask><g transform="translate(22.290448202171262 724.1177042436057) rotate(0 11.807998657226534 22.5)"><text x="0" y="0" font-family="Virgil, Segoe UI Emoji" font-size="36px" fill="#000000" text-anchor="start" style="white-space: pre;" direction="ltr" dominant-baseline="text-before-edge">A</text></g><g transform="translate(10 537.8766787802053) rotate(0 22.373992919921875 22.5)"><text x="0" y="0" font-family="Virgil, Segoe UI Emoji" font-size="36px" fill="#000000" text-anchor="start" style="white-space: pre;" direction="ltr" dominant-baseline="text-before-edge">CL</text></g><g transform="translate(24.46135620319359 906.9098218280537) rotate(0 13.085998535156222 22.5)"><text x="0" y="0" font-family="Virgil, Segoe UI Emoji" font-size="36px" fill="#000000" text-anchor="start" style="white-space: pre;" direction="ltr" dominant-baseline="text-before-edge">B</text></g><g stroke-linecap="round"><g transform="translate(78.42344944090098 1065.2656432145943) rotate(0 566.89957891863 2.664918306182699)"><path d="M-0.76 0.59 C309.61 2.35, 618.01 2.43, 1134.22 5.04 M-0.39 0.29 C439.08 1.71, 878.16 3.38, 1134.56 4.94" stroke="#000000" stroke-width="1" fill="none"></path></g><g transform="translate(78.42344944090098 1065.2656432145943) rotate(0 566.89957891863 2.664918306182699)"><path d="M1104.42 16.52 C1115.63 14.29, 1121.91 8.23, 1134.34 4.62 M1105.35 15.78 C1116.98 11.65, 1127.75 6.91, 1135.2 4.37" stroke="#000000" stroke-width="1" fill="none"></path></g><g transform="translate(78.42344944090098 1065.2656432145943) rotate(0 566.89957891863 2.664918306182699)"><path d="M1104.52 -4 C1115.69 -0.64, 1121.95 -1.11, 1134.34 4.62 M1105.45 -4.74 C1117.23 -0.93, 1127.96 2.27, 1135.2 4.37" stroke="#000000" stroke-width="1" fill="none"></path></g></g><mask></mask><g stroke-linecap="round"><g transform="translate(77.4654424315421 1065.1975037880702) rotate(0 -0.45871751441057995 -76.49360555293265)"><path d="M1.47 1.62 C1.5 -45.49, -2.34 -91.58, -2.14 -153.25 M0.73 -0.18 C-0.34 -60.66, -1.88 -119.98, -2.39 -154.6" stroke="#000000" stroke-width="1" fill="none"></path></g><g transform="translate(77.4654424315421 1065.1975037880702) rotate(0 -0.45871751441057995 -76.49360555293265)"><path d="M9.87 -124.99 C7.22 -134.76, 0.73 -143.42, -2.7 -152.86 M9.13 -126.79 C4.71 -137.95, -0.31 -147.86, -2.96 -154.21" stroke="#000000" stroke-width="1" fill="none"></path></g><g transform="translate(77.4654424315421 1065.1975037880702) rotate(0 -0.45871751441057995 -76.49360555293265)"><path d="M-10.65 -124.61 C-7.25 -134.29, -7.7 -143.07, -2.7 -152.86 M-11.39 -126.4 C-7.82 -137.51, -4.86 -147.57, -2.96 -154.21" stroke="#000000" stroke-width="1" fill="none"></path></g></g><mask></mask><g stroke-linecap="round"><g transform="translate(74.58576828099035 1251.7997230284286) rotate(0 572.1914720151221 3.064550113023188)"><path d="M-0.76 -0.78 C362.56 5.4, 726.56 6.64, 1144.53 6.15 M-0.32 -0.35 C411.59 1.15, 824.16 3.7, 1145.15 6.91" stroke="#000000" stroke-width="1" fill="none"></path></g><g transform="translate(74.58576828099035 1251.7997230284286) rotate(0 572.1914720151221 3.064550113023188)"><path d="M1114.96 14.98 C1123.98 14.99, 1134.87 9.68, 1143.87 5.78 M1116.08 16.05 C1125.96 12.64, 1137.67 9.49, 1145.42 7.68" stroke="#000000" stroke-width="1" fill="none"></path></g><g transform="translate(74.58576828099035 1251.7997230284286) rotate(0 572.1914720151221 3.064550113023188)"><path d="M1115.13 -5.54 C1124.29 0.98, 1135.12 2.17, 1143.87 5.78 M1116.25 -4.47 C1126.26 -0.49, 1137.91 3.74, 1145.42 7.68" stroke="#000000" stroke-width="1" fill="none"></path></g></g><mask></mask><g stroke-linecap="round"><g transform="translate(75.56273726202767 1252.0364026508737) rotate(0 -1.6896422508590376 -77.62315077264094)"><path d="M-1.94 -1.77 C1.33 -60.67, -1.52 -122.9, -2.95 -153.8 M-0.87 -0.99 C-1.66 -60.61, -1.93 -122.03, -1.05 -154.25" stroke="#000000" stroke-width="1" fill="none"></path></g><g transform="translate(75.56273726202767 1252.0364026508737) rotate(0 -1.6896422508590376 -77.62315077264094)"><path d="M6.88 -127.69 C6.2 -136.98, 0.19 -149.52, -2.17 -153.06 M7.95 -126.92 C4.25 -136.63, 0.81 -148.08, -0.27 -153.51" stroke="#000000" stroke-width="1" fill="none"></path></g><g transform="translate(75.56273726202767 1252.0364026508737) rotate(0 -1.6896422508590376 -77.62315077264094)"><path d="M-13.64 -127.98 C-6.27 -136.96, -4.23 -149.38, -2.17 -153.06 M-12.57 -127.2 C-8.17 -136.64, -3.52 -147.98, -0.27 -153.51" stroke="#000000" stroke-width="1" fill="none"></path></g></g><mask></mask><g transform="translate(21.295825710194663 1088.4541094733506) rotate(0 14.995536804199219 29.10818441142999)"><text x="0" y="0" font-family="Virgil, Segoe UI Emoji" font-size="46.573095058288px" fill="#000000" text-anchor="start" style="white-space: pre;" direction="ltr" dominant-baseline="text-before-edge">C</text></g><g stroke-linecap="round" transform="translate(259.9675918818659 258.02644025023574) rotate(0 4.988715661866081 4.263084292867333)"><path d="M5.09 0.05 C5.97 -0.07, 7.29 0.62, 8.12 1.41 C8.96 2.2, 9.85 4.01, 10.11 4.81 C10.37 5.6, 10.26 5.51, 9.67 6.18 C9.09 6.85, 7.66 8.37, 6.59 8.82 C5.53 9.28, 4.25 9.43, 3.29 8.89 C2.34 8.35, 1.41 6.41, 0.87 5.59 C0.33 4.77, -0.02 4.85, 0.03 3.98 C0.09 3.11, 0.1 0.93, 1.2 0.37 C2.31 -0.19, 5.74 0.65, 6.66 0.63 C7.59 0.6, 6.89 0.19, 6.78 0.21 M4.86 1.29 C5.82 1.15, 7.64 0.18, 8.28 0.65 C8.91 1.11, 8.65 3.18, 8.67 4.07 C8.68 4.97, 8.4 5.51, 8.36 6.02 C8.32 6.53, 9.42 6.75, 8.4 7.14 C7.39 7.53, 3.57 8.49, 2.25 8.35 C0.93 8.22, 0.89 6.9, 0.48 6.33 C0.08 5.77, -0.4 5.85, -0.19 4.96 C0.02 4.07, 1.18 1.67, 1.76 0.97 C2.34 0.28, 2.89 1.09, 3.27 0.8 C3.65 0.51, 3.55 -0.74, 4.02 -0.78" stroke="#000000" stroke-width="1" fill="none"></path></g></svg>